<svg xmlns="http://www.w3.org/2000/svg" viewBox="0 0 420 300" role="img" aria-labelledby="title"><title id="title">Письмо, диалог и карточка контакта</title><defs><linearGradient id="a" x1="0" x2="1"><stop stop-color="#dff2fc"/><stop offset="1" stop-color="#b9d9ec"/></linearGradient></defs><circle cx="326" cy="67" r="68" fill="#fff" opacity=".58"/><path d="M36 237c93-86 181-93 314-38" fill="none" stroke="#2d6a96" stroke-width="3" stroke-dasharray="8 9"/><rect x="48" y="79" width="211" height="145" rx="18" fill="#fff" stroke="#9fc7df" stroke-width="3" transform="rotate(-5 153 151)"/><path d="m50 96 103 83L257 96" fill="url(#a)" stroke="#2d6a96" stroke-width="3"/><path d="m51 218 76-70M255 218l-70-70" fill="none" stroke="#9fc7df" stroke-width="3"/><path d="M260 87h85a18 18 0 0 1 18 18v62a18 18 0 0 1-18 18h-37l-25 25v-25h-23a18 18 0 0 1-18-18v-62a18 18 0 0 1 18-18z" fill="#f4f9fc" stroke="#2d6a96" stroke-width="3"/><circle cx="278" cy="136" r="6" fill="#d64c55"/><circle cx="303" cy="136" r="6" fill="#2d6a96"/><circle cx="328" cy="136" r="6" fill="#2b806d"/></svg>
