<svg xmlns="http://www.w3.org/2000/svg" viewBox="0 0 420 300" role="img" aria-labelledby="title"><title id="title">Образовательное здание, оборудование и результат</title><defs><linearGradient id="a" x1="0" x2="1"><stop stop-color="#f5ead4"/><stop offset="1" stop-color="#d9e9f3"/></linearGradient></defs><circle cx="83" cy="71" r="63" fill="#fff" opacity=".56"/><path d="M42 235c94-80 185-111 320-54" fill="none" stroke="#3c7090" stroke-width="3" stroke-dasharray="8 9"/><path d="m62 130 111-57 111 57v103H62z" fill="url(#a)" stroke="#3c7090" stroke-width="3"/><path d="m45 132 128-69 128 69-17 26-111-60-111 60z" fill="#fff" stroke="#3c7090" stroke-width="3"/><path d="M97 151h30v31H97zM148 151h30v31h-30zM199 151h30v31h-30z" fill="#fff" stroke="#7ca4ba" stroke-width="3"/><path d="M149 233v-57h48v57" fill="#b7d4e5" stroke="#3c7090" stroke-width="3"/><circle cx="323" cy="206" r="35" fill="#fff" stroke="#3c7090" stroke-width="3"/><path d="m305 206 13 13 27-31" fill="none" stroke="#2b806d" stroke-width="7" stroke-linecap="round"/><path d="m284 102 27-27 18 18-27 27z" fill="#d98762" stroke="#a85c43" stroke-width="3"/><path d="m322 76 10-10 18 18-10 10z" fill="#e5c06d" stroke="#a85c43" stroke-width="3"/></svg>
