<svg xmlns="http://www.w3.org/2000/svg" viewBox="0 0 420 300" role="img" aria-labelledby="title"><title id="title">Книга, знак образования и защита прав</title><defs><linearGradient id="a" x1="0" x2="1"><stop stop-color="#d9f0ff"/><stop offset="1" stop-color="#b8d9f2"/></linearGradient></defs><circle cx="330" cy="78" r="72" fill="#fff" opacity=".55"/><path d="M52 221c64-84 131-104 191-60 52 38 76 42 128 2" fill="none" stroke="#377da7" stroke-width="3" stroke-dasharray="8 9"/><rect x="72" y="104" width="170" height="112" rx="13" fill="#fff" stroke="#9fc7df" stroke-width="3" transform="rotate(-8 157 160)"/><rect x="181" y="98" width="170" height="112" rx="13" fill="#f0f8fd" stroke="#9fc7df" stroke-width="3" transform="rotate(8 266 154)"/><path d="M160 119 214 98l54 21v51l-54 22-54-22z" fill="url(#a)" stroke="#2d6a96" stroke-width="3"/><path d="M214 119v51M160 119l54 22 54-22" fill="none" stroke="#2d6a96" stroke-width="3"/><circle cx="329" cy="211" r="35" fill="#fff" stroke="#2d6a96" stroke-width="3"/><path d="m310 211 13 13 25-29" fill="none" stroke="#2b806d" stroke-width="7" stroke-linecap="round" stroke-linejoin="round"/></svg>
