<svg xmlns="http://www.w3.org/2000/svg" viewBox="0 0 360 300" role="img" aria-labelledby="title"><title id="title">Памятка с чеклистом и точкой навигации</title><defs><linearGradient id="a" x1="0" x2="1"><stop stop-color="#e0f1fc"/><stop offset="1" stop-color="#c2dced"/></linearGradient></defs><path d="M30 247c82-95 142-84 210-41 42 27 55 24 91-5" fill="none" stroke="#2d6a96" stroke-width="3" stroke-dasharray="8 9"/><rect x="78" y="36" width="166" height="218" rx="17" fill="#fff" stroke="#9fc3d9" stroke-width="3" transform="rotate(-7 161 145)"/><path d="m201 39 33-4 10 37-33 4z" fill="#d9edf8" stroke="#9fc3d9" stroke-width="3"/><rect x="106" y="91" width="101" height="12" rx="6" fill="#b4d2e5"/><rect x="106" y="118" width="124" height="8" rx="4" fill="#e1edf4"/><circle cx="121" cy="158" r="11" fill="#dff3eb"/><path d="m115 158 5 5 10-12" fill="none" stroke="#2b806d" stroke-width="3"/><rect x="143" y="154" width="74" height="8" rx="4" fill="#c0d8e8"/><circle cx="121" cy="193" r="11" fill="#dff3eb"/><path d="m115 193 5 5 10-12" fill="none" stroke="#2b806d" stroke-width="3"/><rect x="143" y="189" width="91" height="8" rx="4" fill="#c0d8e8"/><circle cx="278" cy="92" r="35" fill="url(#a)" stroke="#2d6a96" stroke-width="3"/><circle cx="278" cy="92" r="10" fill="#d64c55"/></svg>
