<svg xmlns="http://www.w3.org/2000/svg" viewBox="0 0 360 300" role="img" aria-labelledby="title"><title id="title">Памятка о документах и подтверждении</title><defs><linearGradient id="a" x1="0" x2="1"><stop stop-color="#e6e8fa"/><stop offset="1" stop-color="#c5d3ef"/></linearGradient></defs><circle cx="287" cy="72" r="54" fill="#fff" opacity=".6"/><path d="M28 246c84-98 146-84 216-39 34 21 58 22 86 0" fill="none" stroke="#596b9d" stroke-width="3" stroke-dasharray="8 9"/><path d="M78 47h133l29 29v159H78z" fill="#fff" stroke="#596b9d" stroke-width="3"/><path d="M211 47v32h29" fill="#e0e5f8" stroke="#596b9d" stroke-width="3"/><path d="M105 110h97M105 135h112M105 160h57" stroke="#a5b6dd" stroke-width="10" stroke-linecap="round"/><circle cx="139" cy="205" r="29" fill="url(#a)" stroke="#596b9d" stroke-width="3"/><path d="m124 205 11 11 22-26" fill="none" stroke="#fff" stroke-width="6" stroke-linecap="round" stroke-linejoin="round"/><path d="m232 171 44-21 44 21-44 21z" fill="#d9e8f5" stroke="#2d6a96" stroke-width="3"/><path d="M232 171v40l44 22 44-22v-40" fill="none" stroke="#2d6a96" stroke-width="3"/><path d="M276 192v41" stroke="#2d6a96" stroke-width="3"/></svg>
